<svg width="33" height="33" viewBox="0 0 33 33" fill="none" xmlns="http://www.w3.org/2000/svg">
<path d="M3.38815 7.15169C4.88332 5.23385 6.79668 3.68275 8.98232 2.61666C11.168 1.55056 13.5682 0.997627 16 1.00001C24.8358 1.00001 32 8.16288 32 17C32 22.9725 28.727 28.1808 23.8771 30.929" stroke="#EBFFC7" stroke-width="1.25"/>
<path fill-rule="evenodd" clip-rule="evenodd" d="M19.2243 32.6749C18.1633 32.892 17.083 33.0009 16 33C7.16288 33 0 25.8372 0 17.0001C0 14.8561 0.42112 12.8093 1.18656 10.9405C2.80704 10.0061 4.80896 9.86918 7.08096 10.2135C8.39936 12.6557 8.93696 14.9853 8.32896 17.3213C7.48126 18.1938 6.46476 18.8845 5.34144 19.3514C6.35648 22.9405 8.71424 25.0807 11.3754 26.8944C12.0937 25.8247 13.0179 24.9087 14.0941 24.2001C16.6195 24.25 18.697 25.4544 20.7155 27.0096C20.8448 29.3072 20.4045 31.2196 19.2243 32.6749Z" fill="#90FF00"/>
<path d="M13.3684 14.7141C13.8586 15.9179 14.6963 16.9483 15.7746 17.674C16.8529 18.3997 18.123 18.7876 19.4228 18.7883C20.723 18.7881 21.9937 18.4004 23.0725 17.6747C24.1514 16.949 24.9895 15.9183 25.4798 14.7141" stroke="#EBFFC7" stroke-width="1.25"/>
</svg>
