<svg width="710" height="511" viewBox="0 0 710 511" fill="none" xmlns="http://www.w3.org/2000/svg">
<mask id="mask0_60_22" style="mask-type:alpha" maskUnits="userSpaceOnUse" x="0" y="0" width="710" height="511">
<rect width="710" height="511" fill="#D9D9D9"/>
</mask>
<g mask="url(#mask0_60_22)">
<mask id="mask1_60_22" style="mask-type:alpha" maskUnits="userSpaceOnUse" x="-293" y="-484" width="982" height="982">
<circle cx="198" cy="7" r="491" fill="#D9D9D9"/>
</mask>
<g mask="url(#mask1_60_22)">
<path opacity="0.5" d="M7.49545 6.55853H5.62158V756.107H7.49545V6.55853Z" fill="#F6FFE4" fill-opacity="0.05"/>
<path opacity="0.2" d="M44.1297 5.62164H42.2558V757.044H44.1297V5.62164Z" fill="#F6FFE4" fill-opacity="0.05"/>
<path opacity="0.2" d="M81.7008 5.62164H79.8269V757.044H81.7008V5.62164Z" fill="#F6FFE4" fill-opacity="0.05"/>
<path opacity="0.2" d="M119.272 5.62164H117.398V757.044H119.272V5.62164Z" fill="#F6FFE4" fill-opacity="0.05"/>
<path opacity="0.2" d="M156.843 5.62164H154.969V757.044H156.843V5.62164Z" fill="#F6FFE4" fill-opacity="0.05"/>
<path opacity="0.5" d="M194.414 5.62164H192.54V757.044H194.414V5.62164Z" fill="#F6FFE4" fill-opacity="0.05"/>
<path opacity="0.2" d="M231.985 5.62164H230.111V757.044H231.985V5.62164Z" fill="#F6FFE4" fill-opacity="0.05"/>
<path opacity="0.2" d="M269.556 5.62164H267.682V757.044H269.556V5.62164Z" fill="#F6FFE4" fill-opacity="0.05"/>
<path opacity="0.2" d="M307.127 5.62164H305.254V757.044H307.127V5.62164Z" fill="#F6FFE4" fill-opacity="0.05"/>
<path opacity="0.2" d="M344.698 5.62164H342.825V757.044H344.698V5.62164Z" fill="#F6FFE4" fill-opacity="0.05"/>
<path opacity="0.5" d="M382.27 5.62164H380.396V757.044H382.27V5.62164Z" fill="#F6FFE4" fill-opacity="0.05"/>
<path opacity="0.2" d="M419.841 5.62164H417.967V757.044H419.841V5.62164Z" fill="#F6FFE4" fill-opacity="0.05"/>
<path opacity="0.2" d="M457.412 5.62164H455.538V757.044H457.412V5.62164Z" fill="#F6FFE4" fill-opacity="0.05"/>
<path opacity="0.2" d="M494.983 5.62164H493.109V757.044H494.983V5.62164Z" fill="#F6FFE4" fill-opacity="0.05"/>
<path opacity="0.2" d="M532.554 5.62164H530.68V757.044H532.554V5.62164Z" fill="#F6FFE4" fill-opacity="0.05"/>
<path opacity="0.5" d="M570.125 5.62164H568.251V757.044H570.125V5.62164Z" fill="#F6FFE4" fill-opacity="0.05"/>
<path opacity="0.2" d="M607.696 5.62164H605.822V757.044H607.696V5.62164Z" fill="#F6FFE4" fill-opacity="0.05"/>
<path opacity="0.2" d="M645.267 5.62164H643.393V757.044H645.267V5.62164Z" fill="#F6FFE4" fill-opacity="0.05"/>
<path opacity="0.2" d="M682.838 5.62164H680.964V757.044H682.838V5.62164Z" fill="#F6FFE4" fill-opacity="0.05"/>
<path opacity="0.5" d="M756.107 5.62164H6.55853V7.49551H756.107V5.62164Z" fill="#F6FFE4" fill-opacity="0.05"/>
<path opacity="0.2" d="M757.044 42.2558H5.62158V44.1297H757.044V42.2558Z" fill="#F6FFE4" fill-opacity="0.05"/>
<path opacity="0.2" d="M757.044 79.8268H5.62158V81.7007H757.044V79.8268Z" fill="#F6FFE4" fill-opacity="0.05"/>
<path opacity="0.2" d="M757.044 117.398H5.62158V119.272H757.044V117.398Z" fill="#F6FFE4" fill-opacity="0.05"/>
<path opacity="0.2" d="M757.044 154.969H5.62158V156.843H757.044V154.969Z" fill="#F6FFE4" fill-opacity="0.05"/>
<path opacity="0.5" d="M757.044 192.54H5.62158V194.414H757.044V192.54Z" fill="#F6FFE4" fill-opacity="0.05"/>
<path opacity="0.2" d="M757.044 230.111H5.62158V231.985H757.044V230.111Z" fill="#F6FFE4" fill-opacity="0.05"/>
<path opacity="0.2" d="M757.044 267.682H5.62158V269.556H757.044V267.682Z" fill="#F6FFE4" fill-opacity="0.05"/>
<path opacity="0.2" d="M757.044 305.254H5.62158V307.127H757.044V305.254Z" fill="#F6FFE4" fill-opacity="0.05"/>
<path opacity="0.2" d="M757.044 342.825H5.62158V344.698H757.044V342.825Z" fill="#F6FFE4" fill-opacity="0.05"/>
<path opacity="0.5" d="M757.044 380.396H5.62158V382.27H757.044V380.396Z" fill="#F6FFE4" fill-opacity="0.05"/>
<path opacity="0.2" d="M757.044 417.967H5.62158V419.841H757.044V417.967Z" fill="#F6FFE4" fill-opacity="0.05"/>
<path opacity="0.2" d="M757.044 455.538H5.62158V457.412H757.044V455.538Z" fill="#F6FFE4" fill-opacity="0.05"/>
<path opacity="0.2" d="M757.044 493.109H5.62158V494.983H757.044V493.109Z" fill="#F6FFE4" fill-opacity="0.05"/>
<path d="M7.49545 0H5.62158V13.1171H7.49545V0Z" fill="#F6FFE4" fill-opacity="0.05"/>
<path d="M13.1171 5.62158H0V7.49545H13.1171V5.62158Z" fill="#F6FFE4" fill-opacity="0.05"/>
<path d="M7.49545 187.387H5.62158V200.504H7.49545V187.387Z" fill="#F6FFE4" fill-opacity="0.05"/>
<path d="M13.1171 193.009H0V194.883H13.1171V193.009Z" fill="#F6FFE4" fill-opacity="0.05"/>
<path d="M7.49545 374.774H5.62158V387.891H7.49545V374.774Z" fill="#F6FFE4" fill-opacity="0.05"/>
<path d="M13.1171 380.396H0V382.27H13.1171V380.396Z" fill="#F6FFE4" fill-opacity="0.05"/>
<path d="M194.883 0H193.009V13.1171H194.883V0Z" fill="#F6FFE4" fill-opacity="0.05"/>
<path d="M200.504 5.62158H187.387V7.49545H200.504V5.62158Z" fill="#F6FFE4" fill-opacity="0.05"/>
<path d="M194.883 187.387H193.009V200.504H194.883V187.387Z" fill="#F6FFE4" fill-opacity="0.05"/>
<path d="M200.504 193.009H187.387V194.883H200.504V193.009Z" fill="#F6FFE4" fill-opacity="0.05"/>
<path d="M194.883 374.774H193.009V387.891H194.883V374.774Z" fill="#F6FFE4" fill-opacity="0.05"/>
<path d="M200.504 380.396H187.387V382.27H200.504V380.396Z" fill="#F6FFE4" fill-opacity="0.05"/>
<path d="M382.27 0H380.396V13.1171H382.27V0Z" fill="#F6FFE4" fill-opacity="0.05"/>
<path d="M387.891 5.62158H374.774V7.49545H387.891V5.62158Z" fill="#F6FFE4" fill-opacity="0.05"/>
<path d="M382.27 187.387H380.396V200.504H382.27V187.387Z" fill="#F6FFE4" fill-opacity="0.05"/>
<path d="M387.891 193.009H374.774V194.883H387.891V193.009Z" fill="#F6FFE4" fill-opacity="0.05"/>
<path d="M382.27 374.774H380.396V387.891H382.27V374.774Z" fill="#F6FFE4" fill-opacity="0.05"/>
<path d="M387.891 380.396H374.774V382.27H387.891V380.396Z" fill="#F6FFE4" fill-opacity="0.05"/>
<path d="M569.657 0H567.783V13.1171H569.657V0Z" fill="#F6FFE4" fill-opacity="0.05"/>
<path d="M575.278 5.62158H562.161V7.49545H575.278V5.62158Z" fill="#F6FFE4" fill-opacity="0.05"/>
<path d="M569.657 187.387H567.783V200.504H569.657V187.387Z" fill="#F6FFE4" fill-opacity="0.05"/>
<path d="M575.278 193.009H562.161V194.883H575.278V193.009Z" fill="#F6FFE4" fill-opacity="0.05"/>
<path d="M569.657 374.774H567.783V387.891H569.657V374.774Z" fill="#F6FFE4" fill-opacity="0.05"/>
<path d="M575.278 380.396H562.161V382.27H575.278V380.396Z" fill="#F6FFE4" fill-opacity="0.05"/>
<path d="M101.189 99.3151H99.3152V101.189H101.189V99.3151Z" fill="#F6FFE4" fill-opacity="0.05"/>
<path d="M288.576 99.3151H286.702V101.189H288.576V99.3151Z" fill="#F6FFE4" fill-opacity="0.05"/>
<path d="M475.963 99.3151H474.089V101.189H475.963V99.3151Z" fill="#F6FFE4" fill-opacity="0.05"/>
<path d="M663.35 99.3151H661.476V101.189H663.35V99.3151Z" fill="#F6FFE4" fill-opacity="0.05"/>
<path d="M101.189 286.702H99.3152V288.576H101.189V286.702Z" fill="#F6FFE4" fill-opacity="0.05"/>
<path d="M288.576 286.702H286.702V288.576H288.576V286.702Z" fill="#F6FFE4" fill-opacity="0.05"/>
<path d="M475.963 286.702H474.089V288.576H475.963V286.702Z" fill="#F6FFE4" fill-opacity="0.05"/>
<path d="M663.35 286.702H661.476V288.576H663.35V286.702Z" fill="#F6FFE4" fill-opacity="0.05"/>
<path d="M101.189 474.089H99.3152V475.963H101.189V474.089Z" fill="#F6FFE4" fill-opacity="0.05"/>
<path d="M288.576 474.089H286.702V475.963H288.576V474.089Z" fill="#F6FFE4" fill-opacity="0.05"/>
<path d="M475.963 474.089H474.089V475.963H475.963V474.089Z" fill="#F6FFE4" fill-opacity="0.05"/>
<path d="M663.35 474.089H661.476V475.963H663.35V474.089Z" fill="#F6FFE4" fill-opacity="0.05"/>
</g>
</g>
</svg>
