<svg width="114" height="36" viewBox="0 0 114 36" fill="none" xmlns="http://www.w3.org/2000/svg">
<path d="M56.5946 35.4848C54.1463 35.4848 51.6995 35.4905 49.2513 35.4805C48.6374 35.4776 48.0222 35.4661 47.4112 35.3683C45.6961 35.0937 44.2039 34.3476 42.887 33.2349C41.0584 31.6924 39.825 29.7372 38.9753 27.5233C38.3557 25.9104 38.0021 24.237 37.8655 22.5133C37.6297 19.536 38.0352 16.6608 39.1852 13.9007C39.9313 12.1108 40.9607 10.5036 42.3781 9.1652C43.8057 7.81673 45.4546 6.88948 47.4169 6.5804C47.8266 6.51571 48.2392 6.46827 48.6547 6.46827C53.9652 6.46827 59.2757 6.45533 64.5862 6.47689C66.6204 6.48552 68.4174 7.22157 70.0059 8.47084C71.744 9.83656 72.9818 11.5876 73.8759 13.5916C74.6522 15.3311 75.1151 17.1539 75.2948 19.0501C75.5824 22.0921 75.2316 25.0478 74.0758 27.8899C73.2995 29.7976 72.2112 31.4969 70.6902 32.9014C69.5042 33.9969 68.1485 34.7962 66.5744 35.2044C65.9893 35.3554 65.3984 35.433 64.7932 35.4503C62.9761 35.5006 61.1589 35.4776 59.3404 35.4833C58.4246 35.4862 57.5089 35.4833 56.5917 35.4833L56.5946 35.4848ZM55.1656 20.8989C55.1541 22.9604 55.5422 24.9385 56.3947 26.8175C57.2774 28.7597 58.5382 30.3942 60.3553 31.5572C61.5888 32.3465 62.9401 32.7778 64.4036 32.8065C65.9289 32.8367 67.3464 32.4284 68.6431 31.6248C70.6111 30.4043 71.9452 28.649 72.8351 26.5429C73.7595 24.3563 74.0945 22.0705 73.9004 19.7028C73.7811 18.2508 73.4734 16.8477 72.9228 15.5007C72.0991 13.4852 70.8944 11.7457 69.0772 10.5065C66.5384 8.77561 63.8472 8.53697 61.0727 9.89119C59.1966 10.8069 57.8611 12.3006 56.8605 14.1048C55.6903 16.2152 55.1728 18.4952 55.167 20.8989H55.1656Z" fill="white"/>
<path d="M25.2995 1.57036C24.5074 1.87945 23.7655 2.17703 23.0166 2.4588C20.8027 3.28973 18.5442 3.96972 16.2124 4.38375C14.8294 4.62957 13.435 4.78196 12.0304 4.74602C10.6848 4.71152 9.3493 4.55482 8.02384 4.31618C5.72512 3.90071 3.47671 3.29261 1.24843 2.59681C0.828653 2.46599 0.60295 2.20722 0.447689 1.83488C0.280928 1.43379 0.24355 1.03414 0.437626 0.630174C0.604388 0.280837 0.901971 0.138515 1.26425 0.101137C1.65384 0.0608843 2.03336 0.128452 2.40857 0.234834C3.30707 0.489289 4.16388 0.850126 5.002 1.25553C6.11327 1.79175 7.25041 2.25322 8.45655 2.53068C9.41975 2.75207 10.3944 2.87858 11.3806 2.96196C12.571 3.06259 13.7555 3.01946 14.9373 2.91021C16.8363 2.73626 18.7023 2.36823 20.5338 1.83919C22.2518 1.34179 23.9596 0.814186 25.6718 0.299526C26.07 0.180205 26.4769 0.0968243 26.8866 0.0350076C27.1252 -0.000932418 27.407 -0.0584364 27.5723 0.155766C27.7376 0.371406 27.6054 0.622986 27.5062 0.844376C27.4472 0.97376 27.3797 1.10314 27.2949 1.21671C26.3331 2.53212 25.6387 3.99128 25.0335 5.49357C24.5102 6.7946 24.0315 8.11288 23.4924 9.40672C21.7917 13.4809 19.8481 17.4314 17.3869 21.1088C16.0859 23.0524 14.6411 24.8796 12.9376 26.4911C12.8959 26.53 12.8527 26.5673 12.8125 26.609C12.7305 26.6953 12.7622 26.7585 12.8585 26.806C12.8973 26.8247 12.9347 26.8448 12.9735 26.8649C15.1457 27.9934 17.2662 29.2154 19.4082 30.3957C21.5358 31.5673 23.7382 32.5478 26.0844 33.186C27.2905 33.5138 28.5139 33.7165 29.7704 33.6777C30.0709 33.6691 30.3699 33.6518 30.712 33.5728C30.206 33.4793 29.7416 33.4017 29.2931 33.2536C27.7721 32.7548 26.5042 31.8721 25.4418 30.6904C23.7296 28.7841 22.7377 26.5242 22.2762 24.03C21.6897 20.8586 21.9527 17.7592 23.2034 14.7704C24.0071 12.8498 25.1715 11.1879 26.8492 9.92138C28.3012 8.82449 29.94 8.2782 31.7658 8.28108C34.8135 8.28683 37.8626 8.28108 40.9104 8.28539C41.0901 8.28539 41.3646 8.20201 41.4279 8.36877C41.5113 8.58729 41.2166 8.6606 41.0771 8.7828C39.9644 9.75605 39.086 10.9133 38.3917 12.2115C37.3178 14.2184 36.7054 16.3647 36.4495 18.6203C36.3402 19.5878 36.2669 20.5582 36.2985 21.5314C36.3934 24.5015 36.9886 27.348 38.4089 29.9888C39.0372 31.1576 39.8178 32.2099 40.7882 33.1185C40.9132 33.2349 41.1749 33.3356 41.0872 33.5268C41.0081 33.6978 40.7493 33.6101 40.5696 33.6116C38.2077 33.6159 35.8471 33.6144 33.4852 33.6144C33.3845 33.6144 33.2853 33.6144 33.1847 33.6144C32.8023 33.6173 32.808 33.6159 32.8483 34.0127C32.8871 34.3951 32.7462 34.7185 32.4702 34.9759C32.1554 35.2691 31.7773 35.433 31.3446 35.4388C29.0228 35.469 26.75 35.203 24.5562 34.3893C23.8849 34.1406 23.2221 33.8747 22.5795 33.5598C22.1051 33.3269 21.6293 33.0926 21.1419 32.8856C19.9401 32.3724 18.849 31.6536 17.6931 31.0555C15.7236 30.0363 13.7742 28.9768 11.7372 28.0926C11.3921 27.9431 11.1377 27.9647 10.8329 28.1832C9.8769 28.8675 8.83608 29.4138 7.81107 29.9831C7.4603 30.1772 7.10665 30.3669 6.7645 30.5739C5.96951 31.0555 5.1012 31.3301 4.2027 31.5271C3.41346 31.6996 2.72772 31.4566 2.12968 30.9535C1.63227 30.5337 1.4957 29.9845 1.67684 29.362C1.89535 28.613 2.31944 27.9862 2.89161 27.4716C4.23001 26.2683 5.79412 25.5524 7.59543 25.3856C8.70238 25.2836 9.75614 25.5351 10.7898 25.9032C10.8976 25.942 11.0025 25.988 11.1104 26.0268C11.5301 26.1821 11.4626 26.2496 11.8363 25.8543C13.1978 24.4138 14.3651 22.8224 15.4318 21.1562C17.3654 18.1373 18.9625 14.9386 20.4576 11.6853C21.3015 9.85093 21.9729 7.94612 22.7765 6.09593C23.261 4.97891 23.7799 3.88059 24.4398 2.8527C24.641 2.53931 24.8481 2.23166 25.0881 1.94558C25.1701 1.84926 25.265 1.75725 25.2966 1.57036H25.2995ZM9.95885 27.4845C9.69433 27.3666 9.47437 27.3206 9.25299 27.2718C8.65494 27.1424 8.05834 27.1999 7.46317 27.2746C6.43817 27.404 5.49941 27.7605 4.66273 28.3715C4.44278 28.5325 4.2372 28.7122 4.08482 28.9394C3.87924 29.2456 3.97412 29.5173 4.31483 29.6611C4.44997 29.7171 4.59229 29.7257 4.73461 29.7329C5.23777 29.7588 5.73087 29.6912 6.21534 29.5532C7.31366 29.2384 8.29267 28.6864 9.22855 28.0481C9.46287 27.8885 9.71158 27.7462 9.95885 27.4831V27.4845Z" fill="white"/>
<path d="M93.2246 22.9777C93.0578 22.9691 92.9529 23.0984 92.8364 23.189C92.3462 23.5685 91.9523 24.0458 91.5699 24.5274C89.9166 26.6076 88.4877 28.8302 87.3318 31.2252C87.1521 31.599 86.9926 31.9828 86.8301 32.3638C86.6317 32.8281 86.3011 33.1674 85.8827 33.4434C85.5564 33.6591 85.2114 33.6734 84.8534 33.6044C84.5185 33.5397 84.3718 33.3586 84.3359 33.0136C84.2928 32.5866 84.2755 32.1582 84.2654 31.7284C84.2166 29.3391 84.1964 26.9498 84.1964 24.5605C84.1964 23.8604 84.2137 23.1574 84.1102 22.4602C84.1016 22.4041 84.103 22.3451 84.0872 22.2905C84.0613 22.1942 83.9952 22.1913 83.9262 22.2431C83.7867 22.348 83.6832 22.4846 83.5898 22.6284C83.3612 22.9763 83.1887 23.3543 83.019 23.7339C82.2054 25.5654 81.4722 27.4299 80.7088 29.2816C80.2833 30.3123 79.8204 31.3287 79.3805 32.3552C79.1821 32.8181 78.8658 33.166 78.4389 33.4362C78.124 33.6361 77.7991 33.6706 77.4527 33.6159C77.0846 33.557 76.9021 33.3543 76.8747 32.9805C76.8187 32.1956 76.7756 31.4106 76.7166 30.6257C76.6088 29.1996 76.4981 27.7735 76.3816 26.3489C76.2997 25.3512 76.1991 24.3549 76.1243 23.3572C76.0884 22.867 76.2494 22.4228 76.5628 22.0461C76.8862 21.658 77.559 21.4941 78.0191 21.668C78.1456 21.7155 78.183 21.8204 78.2017 21.9354C78.252 22.2603 78.3152 22.5852 78.3425 22.9116C78.4173 23.8101 78.4734 24.7086 78.5438 25.6071C78.6473 26.9196 78.6358 28.2379 78.6904 29.5518C78.6919 29.5906 78.7091 29.6295 78.7192 29.6726C78.8414 29.6252 78.8356 29.5101 78.8716 29.4239C79.369 28.2034 79.7126 26.9297 80.1367 25.6833C80.44 24.7891 80.7246 23.8891 81.038 22.9978C81.2968 22.2632 81.6734 21.5904 82.1924 21.0024C82.7013 20.4274 83.3209 20.0407 84.0829 19.8955C84.4998 19.815 84.9081 19.8293 85.3063 19.9875C85.8353 20.1974 86.1458 20.5711 86.1717 21.1519C86.2062 21.9383 86.2695 22.7247 86.258 23.5096C86.235 25.1255 86.1674 26.7413 86.1257 28.3572C86.1128 28.856 86.1243 29.3549 86.1243 29.8667C86.2766 29.8638 86.2896 29.7445 86.3327 29.6668C86.9911 28.4938 87.6352 27.3135 88.3037 26.1462C89.0009 24.93 89.7082 23.7152 90.6139 22.637C91.2019 21.9369 91.9063 21.3805 92.7746 21.0614C93.2821 20.8759 93.801 20.8141 94.333 20.9679C95.0805 21.1836 95.4097 21.681 95.2918 22.453C95.2314 22.8497 95.1164 23.235 94.9914 23.6145C94.7355 24.3894 94.4667 25.1585 94.2208 25.9363C93.8557 27.0892 93.6602 28.2752 93.6803 29.4857C93.6947 30.344 93.7665 31.1993 94.0095 32.0317C94.159 32.5435 94.3617 33.0294 94.6808 33.4607C95.1553 34.1033 95.795 34.4641 96.5727 34.6179C97.1765 34.7373 97.7688 34.6711 98.3625 34.5734C99.2553 34.4282 100.111 34.1406 100.973 33.8819C101.357 33.7669 101.741 33.6533 102.13 33.5599C102.407 33.4937 102.511 33.6159 102.419 33.8833C102.313 34.1938 102.093 34.4181 101.831 34.6036C101.22 35.0406 100.545 35.354 99.8346 35.584C98.4761 36.0253 97.0903 36.1173 95.6829 35.8514C93.7881 35.4934 92.3692 34.0386 91.9897 32.0676C91.7266 30.7019 91.7568 29.3491 92.0285 27.9805C92.3361 26.4351 92.7113 24.9098 93.1642 23.4018C93.2016 23.2796 93.226 23.1531 93.2548 23.028C93.2576 23.0179 93.2432 23.0036 93.226 22.9734L93.2246 22.9777Z" fill="white"/>
<path d="M104.123 31.7441C104.204 31.6219 104.291 31.4968 104.373 31.3675C105.193 30.0808 106.159 28.9163 107.287 27.8899C107.616 27.5909 107.969 27.3221 108.357 27.1035C108.557 26.99 108.766 26.8994 108.991 26.8462C109.219 26.793 109.444 26.7959 109.665 26.8836C110.032 27.0302 110.165 27.266 110.093 27.6613C110.021 28.0567 109.879 28.4333 109.75 28.8114C109.57 29.3404 109.412 29.8752 109.337 30.4301C109.244 31.1188 109.275 31.8002 109.452 32.473C109.492 32.6239 109.551 32.772 109.619 32.9129C109.918 33.5368 110.453 33.8617 111.277 33.8027C111.88 33.7596 112.451 33.5584 113.026 33.3873C113.163 33.347 113.299 33.3025 113.439 33.268C113.522 33.2478 113.618 33.232 113.67 33.3226C113.715 33.4031 113.689 33.4908 113.643 33.567C113.559 33.705 113.436 33.8028 113.304 33.889C112.839 34.1866 112.333 34.3879 111.79 34.4669C111.396 34.5244 110.999 34.5402 110.594 34.5057C109.024 34.3677 108.375 33.1271 108.308 32.0848C108.256 31.2884 108.427 30.5178 108.603 29.7516C108.71 29.2786 108.864 28.8157 108.998 28.3471C109.025 28.2507 109.06 28.1559 109.071 28.0567C109.083 27.9647 109.022 27.9215 108.939 27.9632C108.85 28.0078 108.766 28.0653 108.689 28.1285C107.407 29.1694 106.226 30.3108 105.246 31.6464C104.922 32.0863 104.658 32.5607 104.464 33.0724C104.363 33.3341 104.206 33.5512 103.971 33.705C103.887 33.7596 103.798 33.8128 103.705 33.8401C103.365 33.9379 103.108 33.7596 103.076 33.4045C103.045 33.048 103.019 32.6915 102.999 32.335C102.943 31.3215 102.851 30.3094 102.756 29.2988C102.73 29.0285 102.711 28.7553 102.723 28.4851C102.741 28.0682 102.98 27.7907 103.347 27.7174C103.651 27.6556 103.791 27.7275 103.833 28.0337C103.896 28.4865 103.929 28.9437 103.962 29.3994C104.014 30.1412 104.063 30.8844 104.054 31.6291C104.054 31.6679 104.05 31.7139 104.123 31.7427V31.7441Z" fill="white"/>
<path d="M99.967 32.5564C100.178 32.5478 100.532 32.4371 100.878 32.3019C101.212 32.1726 101.531 32.0144 101.84 31.8333C101.951 31.7686 102.064 31.7053 102.182 31.6565C102.305 31.6076 102.448 31.5774 102.535 31.7053C102.628 31.8434 102.507 31.9469 102.421 32.0374C101.915 32.5679 101.291 32.9029 100.601 33.1243C100.135 33.2738 99.6651 33.3787 99.1691 33.2953C98.5466 33.1918 98.2002 32.8698 98.0823 32.2502C97.9457 31.5415 97.9989 30.8255 98.0348 30.1139C98.0622 29.559 98.124 29.0041 98.1829 28.4506C98.2217 28.0955 98.2749 27.739 98.4489 27.4199C98.6128 27.1208 98.9175 27.0101 99.2137 27.1208C99.5141 27.233 99.6895 27.5133 99.6421 27.8296C99.6191 27.9834 99.5673 28.1343 99.5256 28.2853C99.3359 28.9739 99.1533 29.664 99.0369 30.3698C98.9549 30.8629 98.9017 31.3589 98.9736 31.8606C99.0512 32.3983 99.2554 32.5722 99.9684 32.555L99.967 32.5564Z" fill="white"/>
<path d="M100.206 25.285C99.8893 25.2922 99.6578 25.1527 99.5055 24.8767C99.3646 24.6208 99.4077 24.3822 99.5644 24.1522C99.596 24.1047 99.6276 24.0573 99.665 24.0127C99.8893 23.7453 100.39 23.58 100.63 23.6936C100.877 23.81 101.17 24.3937 101.126 24.687C101.091 24.9184 100.959 25.078 100.748 25.1714C100.575 25.2462 100.392 25.2821 100.206 25.2864V25.285Z" fill="white"/>
<path d="M63.8027 31.8333C63.9249 31.6119 64.1118 31.5041 64.2656 31.3661C65.9835 29.825 67.3306 28.0165 68.2132 25.8759C68.9594 24.0674 69.2224 22.1827 69.0399 20.2434C68.7868 17.5752 67.7403 15.2262 66.077 13.1417C65.5048 12.4243 64.8823 11.7558 64.175 11.1664C64.0988 11.1031 64.0284 11.0313 63.9565 10.9623C63.9479 10.9551 63.9508 10.9349 63.945 10.899C64.0715 10.8257 64.1865 10.9105 64.2929 10.9493C65.4042 11.3605 66.4076 11.9599 67.3104 12.7233C69.2756 14.3823 70.4013 16.5143 70.8225 19.0315C71.0913 20.6387 71.0942 22.2474 70.7607 23.8489C70.4099 25.5338 69.6796 27.0404 68.5885 28.3658C67.3981 29.8135 65.9375 30.9204 64.2397 31.714C64.1175 31.7715 63.9968 31.8592 63.8027 31.8304V31.8333Z" fill="white"/>
</svg>
